# Blender v2.79 (sub 0) OBJ File: 'Low_Poly_Cuboid_Rock_007.blend'
# www.blender.org
mtllib Low_Poly_Cuboid_Rock_007.mtl
o Low_Poly_Cuboid_Rock_007_Cube
v 0.596927 0.511234 0.543143
v -0.570535 0.580854 -0.899564
v -1.055047 0.570818 -0.311964
v -0.712777 0.544634 0.851044
v 0.669894 0.004975 -1.130860
v -1.281894 -0.015507 -0.388922
v 1.323324 -0.042941 -0.110830
v -0.882792 -0.072398 -1.101378
v 0.703756 0.439757 0.750718
v -1.054616 -0.074104 1.158774
v -1.153210 0.317319 0.590029
v 1.129228 -0.037396 0.679073
v 0.652514 -0.078209 1.191181
v -0.915441 -0.311111 0.265448
v 0.709521 -0.221010 -0.420823
v 0.620356 0.554605 -0.745431
vn 0.0191 0.9993 0.0328
vn 0.0288 0.9995 0.0140
vn -0.0335 0.3096 -0.9503
vn -0.9326 0.3608 -0.0001
vn -0.4228 -0.8909 -0.1657
vn -0.7056 -0.7044 0.0770
vn -0.5315 0.8288 0.1751
vn -0.9888 -0.0403 0.1437
vn 0.1070 -0.9865 0.1239
vn 0.6349 0.7722 0.0239
vn 0.7780 0.4062 -0.4793
vn 0.2465 -0.9668 0.0673
vn 0.0416 -0.9514 -0.3051
vn -0.7972 0.3710 -0.4762
vn 0.4017 -0.8659 -0.2980
vn 0.1251 -0.9914 0.0375
vn 0.7475 0.6396 0.1792
vn -0.0182 -0.9849 -0.1724
vn 0.5033 0.8632 0.0382
vn 0.0907 0.9551 0.2822
vn 0.1013 0.6386 0.7628
vn -0.6756 0.4924 -0.5487
vn -0.6141 0.5964 0.5169
vn 0.0176 0.9993 0.0340
vn -0.0158 0.4523 0.8917
vn -0.0072 -0.9668 0.2554
vn 0.6284 0.4669 0.6222
vn 0.1173 0.5773 -0.8081
usemtl LowPolyCuboidRock007Mat
s off
f 3//1 1//1 2//1
f 4//2 1//2 3//2
f 5//3 8//3 2//3
f 6//4 11//4 3//4
f 14//5 6//5 8//5
f 14//6 10//6 6//6
f 3//7 11//7 4//7
f 6//8 10//8 11//8
f 14//9 15//9 12//9
f 9//10 7//10 16//10
f 7//11 5//11 16//11
f 7//12 12//12 15//12
f 8//13 5//13 15//13
f 8//14 6//14 3//14
f 7//15 15//15 5//15
f 13//16 14//16 12//16
f 9//17 12//17 7//17
f 14//18 8//18 15//18
f 16//19 1//19 9//19
f 9//20 1//20 4//20
f 13//21 9//21 4//21
f 8//22 3//22 2//22
f 4//23 11//23 10//23
f 1//24 16//24 2//24
f 10//25 13//25 4//25
f 10//26 14//26 13//26
f 12//27 9//27 13//27
f 5//28 2//28 16//28
