# Blender v2.79 (sub 0) OBJ File: 'Low_Poly_Rock_Big_002.blend'
# www.blender.org
mtllib Low_Poly_Rock_Big_002.mtl
o Low_Poly_Rock_Big_002_Icosphere.005
v -0.033237 -0.604167 -0.741038
v -0.602587 0.991819 0.218484
v 0.127417 1.986915 0.136139
v 0.233244 2.000862 -0.076899
v -0.153134 0.449831 0.821286
v -0.115606 2.068521 0.031333
v -0.522469 0.095735 -0.820101
v 0.007584 1.945140 -0.118369
v -0.363085 -0.973601 -0.029306
v 0.333803 -0.058413 0.645672
v -0.778975 -0.342087 -0.445888
v 0.455525 0.125137 -0.680118
v 0.691610 -0.023649 0.089261
v -0.481566 -0.492891 0.462238
v 0.419640 -0.733237 -0.167811
vn 0.1248 0.3205 -0.9390
vn 0.8649 0.2323 0.4449
vn -0.4973 0.4273 0.7550
vn -0.7846 0.0376 0.6189
vn -0.6793 0.1838 -0.7105
vn -0.2946 0.2914 0.9101
vn 0.2414 0.9531 0.1823
vn -0.8295 0.3896 -0.4001
vn -0.9121 0.2730 -0.3059
vn 0.9478 0.1938 -0.2533
vn 0.9162 -0.2330 -0.3262
vn -0.0618 0.7447 -0.6646
vn 0.1420 -0.0125 -0.9898
vn 0.8150 0.2162 0.5376
vn -0.4564 -0.4083 -0.7906
vn 0.7604 -0.4582 0.4603
vn 0.0957 0.3150 -0.9442
vn 0.3282 -0.7097 0.6234
vn 0.5514 0.2536 0.7948
vn -0.0253 -0.3481 0.9371
vn -0.8747 -0.4347 0.2143
vn -0.9513 -0.0271 0.3070
vn -0.4637 -0.6800 -0.5679
vn 0.6735 -0.3994 -0.6220
vn 0.2006 -0.6758 0.7093
vn 0.2120 -0.9041 -0.3710
usemtl LowPolyBigRock002Mat
s off
f 7//1 8//1 12//1
f 13//2 4//2 3//2
f 5//3 3//3 2//3
f 14//4 5//4 2//4
f 2//5 6//5 8//5
f 6//6 2//6 3//6
f 3//7 4//7 6//7
f 2//8 8//8 7//8
f 7//9 11//9 2//9
f 12//10 4//10 13//10
f 12//11 13//11 15//11
f 4//12 8//12 6//12
f 12//13 1//13 7//13
f 3//14 10//14 13//14
f 1//15 11//15 7//15
f 13//16 10//16 15//16
f 12//17 8//17 4//17
f 10//18 9//18 15//18
f 10//19 3//19 5//19
f 14//20 10//20 5//20
f 9//21 14//21 11//21
f 2//22 11//22 14//22
f 9//23 11//23 1//23
f 1//24 12//24 15//24
f 14//25 9//25 10//25
f 15//26 9//26 1//26
