# Blender v2.79 (sub 0) OBJ File: 'Low_Poly_Cuboid_Rock_010.blend'
# www.blender.org
mtllib Low_Poly_Cuboid_Rock_010.mtl
o Low_Poly_Cuboid_Rock_010_Cube
v -4.612086 0.439875 -0.274419
v 3.177300 0.696991 -2.609113
v -3.215267 0.434934 -4.146287
v 0.891558 10.673958 0.384791
v -0.321198 -0.954180 0.543120
v 3.916494 0.276836 0.366944
v 3.762167 0.425215 4.589872
v -2.411439 0.704851 4.581580
v 1.035144 10.641223 -1.287409
v -3.628301 1.556761 -0.107122
v -0.686640 10.659748 0.484274
v -0.213599 2.057759 2.501910
v -0.435831 10.571427 0.673782
v -1.293233 10.464707 -0.800309
v 1.051244 7.158891 0.796078
v 1.164354 7.161443 -0.564180
v -0.477605 7.111922 -1.532507
v -1.460455 7.160636 -0.073904
v -1.061370 7.191254 0.692991
v 0.261364 7.162922 -1.665390
v -0.938594 2.156397 -2.559525
v 2.224818 2.140777 -0.425156
v 2.145024 2.245696 1.123685
v 1.527239 2.155843 -2.055738
v -2.605249 2.153810 0.094812
v 0.440111 2.140779 -2.448879
v -2.432796 -0.254344 3.984865
v 3.576595 -0.253599 4.549257
v -3.427026 -0.263069 -4.212705
v 3.212513 0.112170 -2.853084
v -4.819522 -0.259001 -0.348318
v 4.066601 -0.258060 0.334405
vn 0.7530 0.6579 -0.0058
vn 0.2005 0.3875 -0.8998
vn -0.7375 0.6045 0.3012
vn 0.2671 0.5909 -0.7613
vn 0.1576 -0.9873 0.0194
vn -0.1704 -0.9808 0.0949
vn 0.0695 0.6249 -0.7776
vn 0.7512 0.2379 -0.6157
vn -0.0176 -0.9818 0.1888
vn 0.2020 0.1229 0.9716
vn -0.5035 0.6843 0.5275
vn 0.1987 0.0329 -0.9795
vn -0.8972 0.3005 -0.3236
vn 0.4877 0.1657 0.8572
vn -0.8322 0.1857 -0.5224
vn 0.7691 -0.1025 -0.6308
vn -0.7062 0.6603 -0.2556
vn -0.0485 0.0147 0.9987
vn -0.3249 0.9121 0.2500
vn -0.0827 0.9962 -0.0266
vn 0.1998 0.9624 0.1841
vn -0.0969 0.9898 -0.1045
vn 0.1902 0.4570 -0.8689
vn -0.5740 0.1108 0.8113
vn -0.9045 0.1223 0.4085
vn -0.1872 0.2160 -0.9583
vn -0.2137 0.1585 -0.9640
vn 0.9750 0.2194 0.0354
vn 0.9949 0.0545 0.0844
vn 0.9049 0.1805 -0.3855
vn -0.8802 0.1440 0.4523
vn 0.9747 0.2081 0.0814
vn -0.8150 0.1676 -0.5547
vn 0.7398 0.6728 0.0034
vn 0.1612 0.9027 0.3989
vn 0.0364 0.8197 0.5717
vn 0.9950 0.0549 0.0828
vn 0.7572 0.6460 -0.0969
vn -0.0411 0.3260 0.9445
vn -0.1849 0.1467 -0.9717
vn -0.4461 0.8495 -0.2816
vn -0.8279 -0.0802 -0.5552
vn 0.1477 -0.9771 -0.1531
vn 0.9359 0.2760 -0.2187
vn -0.8964 0.3028 -0.3238
vn 0.3339 0.1569 -0.9294
vn -0.7006 0.1314 0.7013
vn -0.8700 0.2139 0.4442
vn 0.9586 0.2622 0.1112
vn -0.0795 -0.5253 0.8472
vn 0.5940 0.7656 -0.2471
vn -0.4429 0.8526 -0.2772
vn 0.0808 0.1564 -0.9844
vn -0.8575 0.2046 0.4721
vn 0.9644 0.1492 -0.2185
vn 0.0970 -0.9740 -0.2049
vn -0.1428 -0.9885 -0.0504
vn 0.9630 -0.2659 0.0445
vn -0.8801 -0.2365 0.4117
vn -0.0040 -0.0586 0.9983
usemtl LowPolyCuboidRock010Mat
s off
f 22//1 23//1 7//1
f 3//2 2//2 30//2
f 8//3 10//3 1//3
f 24//4 2//4 26//4
f 28//5 5//5 32//5
f 31//6 5//6 27//6
f 26//7 3//7 21//7
f 20//8 16//8 24//8
f 27//9 5//9 28//9
f 15//10 4//10 13//10
f 10//11 12//11 25//11
f 3//12 30//12 29//12
f 1//13 29//13 31//13
f 23//14 15//14 12//14
f 25//15 17//15 21//15
f 20//16 9//16 16//16
f 1//17 10//17 3//17
f 19//18 15//18 13//18
f 10//19 8//19 12//19
f 13//20 4//20 9//20
f 9//21 11//21 13//21
f 9//22 14//22 11//22
f 26//23 2//23 3//23
f 13//24 11//24 19//24
f 14//25 19//25 11//25
f 17//26 20//26 21//26
f 17//27 14//27 9//27
f 22//28 15//28 23//28
f 4//29 16//29 9//29
f 24//30 16//30 22//30
f 14//31 18//31 19//31
f 15//32 22//32 16//32
f 17//33 25//33 18//33
f 7//34 6//34 22//34
f 12//35 7//35 23//35
f 7//36 12//36 8//36
f 15//37 16//37 4//37
f 2//38 22//38 6//38
f 12//39 15//39 19//39
f 9//40 20//40 17//40
f 10//41 21//41 3//41
f 17//42 18//42 14//42
f 32//43 5//43 30//43
f 6//44 32//44 30//44
f 1//45 3//45 29//45
f 24//46 26//46 20//46
f 12//47 19//47 25//47
f 18//48 25//48 19//48
f 28//49 32//49 6//49
f 8//50 27//50 28//50
f 2//51 24//51 22//51
f 25//52 21//52 10//52
f 20//53 26//53 21//53
f 1//54 31//54 27//54
f 6//55 30//55 2//55
f 5//56 29//56 30//56
f 5//57 31//57 29//57
f 28//58 6//58 7//58
f 1//59 27//59 8//59
f 8//60 28//60 7//60
