# Blender v2.79 (sub 0) OBJ File: 'Low_Poly_Rock_001.blend'
# www.blender.org
mtllib Low_Poly_Rock_001.mtl
o Low_Poly_Rock_001_Icosphere
v -0.482833 0.316986 0.032589
v -0.390680 0.267150 0.361152
v 0.037410 -0.109308 -0.128825
v -0.176798 -0.090539 -0.359513
v 0.182121 -0.005233 -0.483059
v -0.037145 0.025799 -0.527845
v 0.557827 0.108026 -0.036123
v -0.291994 0.275369 -0.399723
v 0.280952 0.347222 -0.389388
v -0.004338 0.509711 -0.195820
v -0.008182 0.291086 0.464583
v -0.438996 -0.034571 0.059798
v 0.134694 0.007547 0.506542
v 0.167191 -0.152787 0.039573
v 0.438342 -0.044055 0.256518
v 0.492455 0.168088 0.314079
v 0.118399 0.503597 0.183173
v 0.416688 0.376287 -0.046051
v -0.205756 0.007081 0.441978
v -0.027233 -0.114513 0.262835
vn -0.3411 0.9105 0.2338
vn -0.0926 -0.8643 0.4944
vn -0.1957 0.8229 0.5334
vn -0.2658 0.1087 0.9579
vn 0.3652 0.9043 -0.2209
vn -0.0371 0.4261 -0.9039
vn -0.8239 -0.3114 -0.4736
vn -0.0003 -0.8226 -0.5687
vn 0.8298 0.4231 -0.3639
vn -0.9618 -0.1002 0.2546
vn 0.7705 -0.0471 -0.6357
vn 0.8805 0.4664 0.0844
vn 0.5111 -0.8302 -0.2227
vn 0.5119 -0.8305 -0.2198
vn 0.1531 -0.9633 -0.2205
vn -0.9104 -0.1436 -0.3881
vn 0.0291 -0.9622 -0.2708
vn 0.1470 -0.9456 0.2902
vn -0.1368 -0.9895 0.0465
vn 0.2224 0.1917 -0.9559
vn -0.6353 -0.2791 -0.7200
vn -0.3195 -0.9011 0.2932
vn -0.0758 0.7059 -0.7043
vn -0.4731 0.8322 -0.2890
vn 0.5686 0.7583 0.3188
vn -0.1708 -0.9844 -0.0413
vn -0.1861 0.0514 0.9812
vn 0.3604 0.6593 0.6599
vn -0.3214 0.9394 0.1193
vn 0.3304 0.9394 -0.0918
vn -0.7677 -0.3871 0.5107
vn 0.5603 -0.3470 0.7521
vn 0.3420 0.3039 0.8892
vn 0.9280 -0.2976 0.2243
vn 0.1442 -0.9198 0.3649
vn -0.2528 -0.9660 -0.0546
usemtl LowPolyRock001Mat
s off
f 2//1 17//1 1//1
f 13//2 19//2 20//2
f 2//3 11//3 17//3
f 11//4 2//4 19//4
f 10//5 18//5 9//5
f 9//6 6//6 8//6
f 12//7 8//7 4//7
f 5//8 4//8 6//8
f 7//9 9//9 18//9
f 1//10 12//10 2//10
f 5//11 9//11 7//11
f 7//12 18//12 16//12
f 14//13 7//13 15//13
f 14//14 5//14 7//14
f 4//15 5//15 3//15
f 8//16 12//16 1//16
f 14//17 3//17 5//17
f 20//18 14//18 15//18
f 4//19 3//19 12//19
f 6//20 9//20 5//20
f 4//21 8//21 6//21
f 19//22 12//22 20//22
f 8//23 10//23 9//23
f 8//24 1//24 10//24
f 16//25 18//25 17//25
f 20//26 12//26 3//26
f 11//27 19//27 13//27
f 11//28 16//28 17//28
f 1//29 17//29 10//29
f 17//30 18//30 10//30
f 2//31 12//31 19//31
f 15//32 16//32 13//32
f 11//33 13//33 16//33
f 7//34 16//34 15//34
f 20//35 15//35 13//35
f 20//36 3//36 14//36
