# Blender v2.79 (sub 0) OBJ File: 'Low_Poly_Cuboid_Rock_012.blend'
# www.blender.org
mtllib Low_Poly_Cuboid_Rock_012.mtl
o Low_Poly_Cuboid_Rock_012_Cube.001
v -3.968138 -0.352033 3.784221
v -1.682246 4.605225 1.980094
v -3.592136 -0.439443 -3.668145
v -1.744618 4.551692 -1.813370
v 3.466484 -0.494956 3.907865
v 1.495816 4.705193 1.915203
v 3.761600 -0.575298 -3.650894
v 1.729492 4.574190 -1.549013
v -0.853982 4.605542 -1.650770
v 0.065423 4.553469 -1.625454
v 0.975271 4.542224 -1.550539
v 2.012120 -0.414880 -3.656962
v 0.064937 -0.385767 -3.735059
v -1.806767 -0.377007 -3.750202
v 0.373687 4.541699 1.934067
v -1.970351 -0.581983 3.964145
v -0.211049 -0.741234 4.020242
v 1.647786 -0.478224 3.859617
v -3.106182 1.105822 2.963380
v -2.648842 1.965680 2.317240
v -2.087946 3.393222 2.000240
v -2.198762 3.075662 -2.083867
v -2.522601 2.018036 -2.107941
v -3.024093 1.104875 -3.044286
v 2.062679 3.334533 -1.824446
v 2.197544 2.195107 -2.057296
v 3.034523 1.106901 -2.785831
v 2.226462 2.078828 2.568515
v 1.052477 3.067863 2.252640
v -0.509970 2.017400 2.603934
v -1.006300 3.278267 -1.948835
v -1.598248 4.621742 0.762370
v -1.687667 4.731345 -0.573556
v -3.678928 -0.560255 -1.102506
v -3.707574 -0.411560 1.291979
v 1.729885 4.556151 -0.654937
v 1.659077 4.716097 0.897842
v 3.747280 -0.381985 1.558121
v 3.647209 -0.357562 -1.118653
v -0.203103 -1.093146 0.101183
v 2.471181 1.771118 1.059777
v 2.781439 1.661264 -0.744380
v -3.028388 0.983161 -0.784055
vn -0.9227 0.3850 0.0190
vn 0.2978 0.5988 -0.7435
vn 0.8563 0.5153 0.0338
vn -0.0493 0.4847 0.8733
vn -0.0163 -0.9993 0.0330
vn 0.0278 0.9994 0.0202
vn -0.9468 0.3159 -0.0610
vn -0.1340 -0.9897 -0.0511
vn 0.1447 -0.9855 0.0888
vn -0.0195 0.4541 0.8907
vn -0.0559 0.3916 -0.9184
vn -0.0118 0.5518 -0.8339
vn 0.0853 0.1542 -0.9844
vn 0.0390 0.2147 -0.9759
vn -0.0756 0.2209 0.9724
vn 0.0293 0.2468 0.9686
vn 0.0053 0.3100 0.9507
vn 0.9501 0.2705 0.1554
vn -0.8925 0.4497 -0.0332
vn 0.0424 0.4748 -0.8791
vn 0.1146 -0.0125 -0.9933
vn 0.0355 0.2175 -0.9754
vn -0.0071 0.2151 -0.9766
vn 0.7638 0.6405 -0.0792
vn 0.9659 0.2588 0.0035
vn 0.9637 0.2666 0.0165
vn 0.1828 -0.9830 -0.0158
vn 0.1474 -0.9847 0.0933
vn -0.1154 -0.9933 0.0117
vn -0.9157 0.4001 -0.0371
vn -0.9166 0.3986 -0.0321
vn -0.9558 0.2939 0.0013
vn -0.9301 0.3674 -0.0033
vn -0.1444 0.9894 -0.0126
vn -0.9562 0.2927 0.0032
vn 0.0376 0.9993 0.0049
vn -0.1613 -0.9830 0.0879
vn -0.0900 -0.9959 -0.0050
vn 0.9193 0.3934 0.0077
vn -0.8806 0.4626 -0.1031
vn 0.0062 0.1179 -0.9930
vn -0.9364 0.3506 -0.0152
vn 0.0464 0.4726 -0.8800
vn 0.8662 0.4833 0.1268
vn -0.0205 0.4997 0.8660
vn -0.0913 -0.9925 0.0812
vn -0.0339 0.9893 -0.1418
vn -0.0423 0.9991 -0.0072
vn 0.9194 0.3691 0.1356
vn 0.0254 -0.9809 -0.1930
vn -0.1712 -0.9835 0.0590
vn 0.0121 0.4577 0.8890
vn 0.0131 0.4578 0.8890
vn 0.9239 0.1785 -0.3383
vn -0.0102 0.5509 -0.8345
vn 0.1644 0.1981 -0.9663
vn -0.0135 0.2053 0.9786
vn 0.0014 0.4505 0.8928
vn -0.2724 0.1071 0.9562
vn -0.1344 0.2648 0.9549
vn -0.1176 0.6358 0.7628
vn 0.9526 0.2888 0.0956
vn 0.0821 0.2902 -0.9535
vn 0.0093 0.5674 -0.8234
vn 0.0566 0.9984 -0.0016
vn -0.2201 0.9693 -0.1099
vn -0.8861 0.4628 0.0232
vn 0.0122 0.9999 0.0023
vn -0.9309 0.3653 -0.0018
vn 0.8804 0.4579 0.1235
vn 0.9656 0.2600 0.0048
vn 0.1324 -0.9764 -0.1708
vn -0.9711 0.2237 0.0834
vn 0.0359 0.2042 -0.9783
vn 0.0312 0.9994 0.0157
vn 0.2296 0.9711 0.0643
vn -0.0031 -0.9834 -0.1815
vn -0.0079 -0.9988 -0.0490
vn 0.9195 0.3930 0.0073
vn 0.8627 0.5049 -0.0276
vn -0.9183 0.3944 -0.0355
vn 0.0589 0.2367 0.9698
usemtl LowPolyCuboidRock012Mat
s off
f 24//1 34//1 43//1
f 24//2 23//2 14//2
f 28//3 38//3 41//3
f 19//4 16//4 30//4
f 12//5 39//5 13//5
f 8//6 15//6 36//6
f 21//7 2//7 32//7
f 3//8 40//8 34//8
f 38//9 17//9 40//9
f 28//10 18//10 5//10
f 24//11 14//11 3//11
f 23//12 26//12 13//12
f 4//13 31//13 22//13
f 31//14 9//14 10//14
f 6//15 29//15 28//15
f 15//16 2//16 30//16
f 28//17 29//17 30//17
f 6//18 41//18 37//18
f 43//19 19//19 20//19
f 27//20 12//20 13//20
f 23//21 22//21 31//21
f 31//22 10//22 25//22
f 11//23 8//23 25//23
f 26//24 42//24 27//24
f 8//25 41//25 25//25
f 37//26 41//26 36//26
f 40//27 39//27 38//27
f 38//28 18//28 17//28
f 35//29 16//29 1//29
f 23//30 43//30 21//30
f 35//31 19//31 43//31
f 33//32 4//32 22//32
f 21//33 32//33 22//33
f 37//34 15//34 6//34
f 22//35 23//35 21//35
f 9//36 32//36 15//36
f 17//37 35//37 40//37
f 17//38 16//38 35//38
f 27//39 39//39 7//39
f 19//40 35//40 1//40
f 31//41 26//41 23//41
f 24//42 3//42 34//42
f 27//43 7//43 12//43
f 28//44 5//44 38//44
f 19//45 1//45 16//45
f 12//46 7//46 39//46
f 9//47 4//47 33//47
f 8//48 11//48 15//48
f 41//49 39//49 42//49
f 3//50 14//50 40//50
f 35//51 34//51 40//51
f 30//52 17//52 18//52
f 30//53 16//53 17//53
f 42//54 26//54 25//54
f 27//55 13//55 26//55
f 4//56 9//56 31//56
f 6//57 15//57 29//57
f 18//58 28//58 30//58
f 2//59 21//59 30//59
f 21//60 20//60 30//60
f 20//61 19//61 30//61
f 6//62 28//62 41//62
f 10//63 11//63 25//63
f 13//64 14//64 23//64
f 15//65 10//65 9//65
f 37//66 36//66 15//66
f 23//67 24//67 43//67
f 15//68 11//68 10//68
f 20//69 21//69 43//69
f 42//70 25//70 41//70
f 8//71 36//71 41//71
f 13//72 39//72 40//72
f 32//73 33//73 22//73
f 25//74 26//74 31//74
f 15//75 32//75 2//75
f 9//76 33//76 32//76
f 14//77 13//77 40//77
f 38//78 5//78 18//78
f 27//79 42//79 39//79
f 41//80 38//80 39//80
f 43//81 34//81 35//81
f 29//82 15//82 30//82
