# Blender v2.79 (sub 0) OBJ File: 'Low_Poly_Rock_Small_004.blend'
# www.blender.org
mtllib Low_Poly_Rock_Small_004.mtl
o Low_Poly_Rock_Small_004_Icosphere.014
v 0.238205 -0.043941 -0.022113
v 0.121658 -0.045600 0.183091
v -0.145751 0.070610 0.092935
v 0.103127 0.078239 -0.105990
v -0.203476 0.058381 -0.138360
v -0.271093 -0.035321 -0.061189
v 0.107085 -0.079430 -0.013495
v -0.057963 0.102333 0.133638
v 0.043297 -0.064415 -0.254095
v 0.101564 0.066731 0.131563
v -0.181115 -0.051543 0.067190
v -0.094666 -0.099521 0.004976
v -0.040085 0.072598 -0.176745
v -0.009889 -0.029122 0.216618
vn -0.8071 0.1115 0.5798
vn -0.0347 -0.9441 0.3279
vn 0.2673 -0.9528 0.1441
vn 0.2182 0.9747 0.0487
vn 0.1365 0.5640 0.8144
vn 0.0909 -0.9921 -0.0860
vn -0.7391 0.6567 0.1497
vn 0.2514 -0.9596 -0.1265
vn -0.3557 0.9338 0.0394
vn 0.1123 -0.9806 0.1604
vn -0.2195 -0.8960 0.3860
vn 0.8108 0.3576 0.4634
vn -0.1098 0.9888 -0.1011
vn -0.4924 0.3286 0.8059
vn 0.6562 0.7535 0.0408
vn -0.6596 0.0327 0.7509
vn 0.2731 0.4410 0.8549
vn 0.0077 0.9955 -0.0949
vn -0.5201 -0.2871 -0.8044
vn -0.2440 -0.9352 -0.2567
vn -0.2429 0.3606 -0.9005
vn 0.7018 0.3499 -0.6205
vn 0.3320 0.6088 -0.7205
vn -0.3895 -0.9073 0.1584
usemtl LowPolyRockSmall004Mat
s off
f 11//1 3//1 6//1
f 2//2 14//2 12//2
f 2//3 7//3 1//3
f 4//4 8//4 10//4
f 14//5 10//5 8//5
f 7//6 12//6 9//6
f 6//7 3//7 5//7
f 9//8 1//8 7//8
f 8//9 5//9 3//9
f 12//10 7//10 2//10
f 12//11 14//11 11//11
f 10//12 2//12 1//12
f 8//13 13//13 5//13
f 8//14 3//14 14//14
f 10//15 1//15 4//15
f 14//16 3//16 11//16
f 2//17 10//17 14//17
f 13//18 8//18 4//18
f 6//19 5//19 9//19
f 9//20 12//20 6//20
f 5//21 13//21 9//21
f 9//22 4//22 1//22
f 13//23 4//23 9//23
f 6//24 12//24 11//24
