# Blender v2.79 (sub 0) OBJ File: 'Low_Poly_Rock_002.blend'
# www.blender.org
mtllib Low_Poly_Rock_002.mtl
o Low_Poly_Rock_002_Icosphere.001
v -0.189066 -0.209190 -0.324788
v -0.399464 -0.173100 0.092676
v -0.232613 0.038914 -0.396618
v 0.436624 -0.065709 -0.314788
v 0.439140 -0.213057 -0.114859
v 0.356244 0.161183 0.252356
v 0.067746 0.140613 -0.367723
v 0.036961 0.086236 0.497880
v -0.150432 0.248575 0.170919
v 0.202890 -0.252097 0.051029
v 0.206328 0.241774 0.042117
v -0.154750 -0.078090 0.461198
v -0.284266 0.082148 0.371724
v 0.084932 -0.069166 -0.510110
v -0.429630 0.048682 -0.025474
v 0.464925 -0.062644 0.262990
v 0.128348 -0.182162 0.423540
vn 0.1452 -0.8807 -0.4508
vn -0.8541 -0.3303 -0.4019
vn 0.0484 -0.9854 -0.1630
vn -0.8514 -0.2782 -0.4446
vn 0.4059 0.5358 -0.7404
vn 0.4548 -0.0906 0.8860
vn 0.4941 0.7904 -0.3622
vn 0.3175 -0.9184 0.2360
vn 0.9976 -0.0489 -0.0486
vn -0.0608 0.9737 -0.2198
vn -0.1286 -0.9915 0.0209
vn -0.2193 0.8180 0.5318
vn -0.4378 0.8621 -0.2551
vn 0.0931 0.9120 0.3995
vn 0.8995 0.4345 -0.0464
vn 0.5369 0.2982 0.7892
vn 0.1193 0.9525 0.2801
vn -0.9392 0.0530 0.3393
vn -0.2806 0.9129 -0.2966
vn 0.0345 -0.2559 0.9661
vn -0.7608 -0.2909 0.5802
vn -0.6521 0.7373 0.1765
vn 0.6626 0.7230 -0.1953
vn -0.1075 0.5523 -0.8267
vn -0.3593 0.2165 0.9078
vn -0.2680 -0.8749 0.4035
vn -0.4135 -0.3194 -0.8527
vn 0.3210 -0.7605 -0.5645
vn 0.4445 -0.8423 0.3049
vn -0.1174 -0.9800 0.1605
usemtl LowPolyRock002Mat
s off
f 14//1 5//1 1//1
f 15//2 1//2 2//2
f 1//3 5//3 10//3
f 1//4 15//4 3//4
f 14//5 7//5 4//5
f 16//6 8//6 17//6
f 7//7 11//7 4//7
f 17//8 10//8 5//8
f 16//9 5//9 4//9
f 11//10 7//10 9//10
f 1//11 10//11 2//11
f 13//12 8//12 9//12
f 9//13 3//13 15//13
f 6//14 9//14 8//14
f 16//15 4//15 6//15
f 8//16 16//16 6//16
f 6//17 11//17 9//17
f 15//18 2//18 13//18
f 3//19 9//19 7//19
f 12//20 17//20 8//20
f 2//21 12//21 13//21
f 9//22 15//22 13//22
f 11//23 6//23 4//23
f 14//24 3//24 7//24
f 8//25 13//25 12//25
f 17//26 12//26 2//26
f 14//27 1//27 3//27
f 14//28 4//28 5//28
f 17//29 5//29 16//29
f 2//30 10//30 17//30
