# Blender v2.79 (sub 0) OBJ File: 'Low_Poly_Rock_006.blend'
# www.blender.org
mtllib Low_Poly_Rock_006.mtl
o Low_Poly_Rock_006_Icosphere.013
v 0.897741 -0.026126 0.428032
v 0.008960 -0.350213 -0.455965
v 0.774463 0.723131 0.412366
v 0.155186 -0.058592 1.082546
v 0.204446 0.657531 -0.904442
v 0.273539 1.346758 -0.229448
v -0.484565 -0.058940 -1.020290
v 0.137867 1.162575 0.692001
v -0.532927 0.787359 0.844445
v -0.987376 0.263384 0.319448
v -0.784849 0.846927 -0.035717
v -1.098799 0.321753 -0.704689
v -0.156171 -0.396654 0.591205
v -0.278478 1.342648 0.105715
v -0.553094 -0.022829 0.946543
v 0.767595 0.416695 -0.770359
v -0.942085 -0.216040 -0.238052
v 1.163820 0.225535 -0.395348
v 0.953195 -0.231393 -0.785980
v 0.004707 0.081352 -1.126814
vn 0.3586 -0.8595 0.3642
vn -0.1587 -0.7635 0.6259
vn 0.1213 0.9698 0.2117
vn -0.9748 -0.2020 0.0945
vn -0.2011 -0.9310 -0.3046
vn 0.8378 0.5273 -0.1415
vn -0.7976 0.0949 0.5957
vn -0.2871 0.8143 -0.5045
vn 0.8567 -0.5007 0.1238
vn 0.0457 0.3049 0.9513
vn 0.9241 0.1593 0.3473
vn -0.7122 0.6566 0.2483
vn -0.3391 0.8044 0.4878
vn 0.6208 0.7462 0.2406
vn -0.2331 0.3696 -0.8995
vn 0.1222 -0.8343 -0.5375
vn -0.8096 -0.4759 0.3435
vn -0.1808 0.1274 0.9752
vn 0.3727 0.1289 -0.9189
vn 0.6532 0.1231 0.7471
vn 0.1159 -0.9929 -0.0258
vn 0.7247 0.2233 -0.6519
vn 0.5349 0.2642 0.8025
vn -0.1547 -0.9856 -0.0681
vn -0.4130 0.6138 -0.6727
vn -0.3087 0.4337 -0.8465
vn 0.3214 0.2419 -0.9155
vn -0.4239 0.6551 -0.6255
vn 0.4212 0.6127 -0.6687
vn -0.0828 -0.8384 -0.5388
vn -0.8452 0.4595 0.2730
vn 0.3503 -0.9208 0.1717
vn 0.5776 0.7894 -0.2079
vn -0.5002 -0.8134 0.2969
vn -0.9125 0.3907 0.1215
vn -0.6271 -0.6067 -0.4886
usemtl LowPolyRock006Mat
s off
f 1//1 4//1 13//1
f 4//2 15//2 13//2
f 8//3 6//3 14//3
f 17//4 10//4 12//4
f 2//5 17//5 7//5
f 16//6 6//6 3//6
f 9//7 10//7 15//7
f 5//8 12//8 11//8
f 19//9 18//9 1//9
f 4//10 8//10 9//10
f 3//11 1//11 18//11
f 11//12 9//12 14//12
f 8//13 14//13 9//13
f 3//14 6//14 8//14
f 5//15 7//15 12//15
f 7//16 20//16 2//16
f 17//17 15//17 10//17
f 4//18 9//18 15//18
f 20//19 16//19 19//19
f 3//20 4//20 1//20
f 13//21 2//21 19//21
f 16//22 18//22 19//22
f 8//23 4//23 3//23
f 2//24 13//24 17//24
f 6//25 11//25 14//25
f 5//26 20//26 7//26
f 16//27 20//27 5//27
f 5//28 11//28 6//28
f 16//29 5//29 6//29
f 2//30 20//30 19//30
f 10//31 9//31 11//31
f 13//32 19//32 1//32
f 3//33 18//33 16//33
f 15//34 17//34 13//34
f 12//35 10//35 11//35
f 17//36 12//36 7//36
