# Blender v2.79 (sub 0) OBJ File: 'Low_Poly_Rock_Big_005.blend'
# www.blender.org
mtllib Low_Poly_Rock_Big_005.mtl
o Low_Poly_Rock_Big_005_Icosphere.010
v -0.426771 5.100000 1.826542
v -1.489890 6.075300 1.057450
v 1.211605 3.732409 -1.474183
v 2.167893 -1.108228 0.123135
v -0.989534 7.089626 1.815774
v -0.068716 5.681580 -2.397676
v 0.157323 3.800184 -2.101830
v 2.271484 7.241439 -0.533518
v 0.712664 3.954031 1.941395
v -1.721443 6.974380 -1.949993
v 1.846189 3.800247 -0.197848
v 0.222367 -0.497418 -2.481166
v 1.557811 3.851025 1.018885
v -2.078363 -0.551688 -1.253254
v -2.296320 -1.138257 0.258851
v -0.054038 1.762732 2.501420
v -2.046576 2.120545 -0.351521
v -1.620163 3.733357 -0.186471
v -1.284319 2.060619 1.446927
v 1.217783 4.697192 1.512310
v -0.779549 3.831726 -1.687202
v -2.220913 7.002633 -0.077404
v 1.742166 7.112016 0.880203
v 0.662991 6.952478 2.014856
v 1.305009 7.207317 -1.873311
v -0.309538 -1.633610 -0.446862
v -0.780492 -0.785284 2.132360
v -0.953010 3.666430 1.300315
v 1.509295 1.651851 -1.271761
v -0.978905 -0.898837 -1.432766
v 1.610449 2.714915 -0.899474
v 0.590136 2.537160 -2.220093
v 0.790406 -0.331856 2.392631
v -0.081609 3.862145 1.866038
v 0.002188 7.215702 -2.533605
v -1.319080 -0.867159 2.211751
v -0.750702 -0.339644 -2.432977
v 1.069326 -1.011454 -1.366426
v 1.969445 -0.619540 1.222979
v 1.233229 2.772585 -1.831067
vn -0.0951 0.0053 0.9955
vn -0.6024 0.2240 0.7661
vn 0.9287 0.0367 -0.3689
vn -0.2131 0.1705 -0.9620
vn -0.6701 0.1261 -0.7315
vn 0.9708 0.0785 0.2268
vn -0.3915 -0.1887 -0.9006
vn -0.8224 0.1906 -0.5359
vn 0.7227 0.0239 0.6907
vn 0.0838 -0.8792 -0.4691
vn 0.8893 0.0960 -0.4472
vn 0.4493 -0.0994 -0.8878
vn -0.9533 -0.1668 -0.2518
vn -0.8384 0.0061 0.5450
vn -0.6837 -0.1896 0.7047
vn -0.1219 -0.0291 0.9921
vn 0.4389 -0.0879 -0.8942
vn 0.8882 -0.1521 -0.4335
vn -0.8828 -0.1519 0.4445
vn 0.5030 -0.1120 -0.8570
vn 0.7861 -0.0422 -0.6167
vn -0.4024 -0.1954 -0.8944
vn -0.0347 0.0898 -0.9954
vn -0.1671 -0.8415 -0.5137
vn 0.7277 -0.1030 0.6781
vn 0.5070 0.2510 -0.8246
vn 0.9358 -0.0822 0.3428
vn 0.9165 -0.0975 0.3879
vn -0.8473 0.2708 -0.4569
vn 0.8089 -0.0885 -0.5813
vn -0.6203 -0.0594 0.7821
vn -0.3112 -0.0696 -0.9478
vn 0.1413 -0.1821 0.9731
vn -0.9006 -0.1787 0.3961
vn -0.1232 0.2860 0.9503
vn 0.2572 0.3461 0.9022
vn -0.8917 0.1939 0.4089
vn -0.8272 -0.2883 -0.4823
vn 0.9432 0.2549 0.2129
vn 0.9189 0.1555 -0.3625
vn 0.7964 -0.1104 -0.5946
vn -0.1622 -0.8451 -0.5095
vn -0.3334 -0.7885 -0.5169
vn -0.3517 -0.8491 -0.3941
vn 0.9309 0.0386 -0.3632
vn 0.3760 0.1038 0.9208
vn -0.1344 -0.9483 0.2874
vn -0.6071 0.2076 0.7670
vn -0.5643 0.1898 0.8035
vn -0.5218 -0.1185 0.8448
vn -0.8955 0.2201 0.3869
vn 0.7394 0.0837 0.6680
vn 0.1924 -0.8868 0.4201
vn -0.3344 -0.8614 -0.3823
vn -0.9096 0.1428 0.3903
vn 0.9861 0.0970 0.1348
vn -0.4056 -0.0536 -0.9125
vn 0.1225 -0.9359 0.3302
vn 0.1945 -0.8990 0.3923
vn -0.8942 0.1230 0.4304
vn 0.1583 -0.9857 0.0576
vn -0.0655 -0.0781 0.9948
vn -0.9911 0.0531 -0.1223
vn 0.5667 -0.2519 -0.7844
vn 0.6744 -0.0853 -0.7334
vn 0.2554 -0.9342 -0.2491
vn 0.7128 0.0973 0.6946
vn 0.9270 0.0423 -0.3727
vn 0.3984 0.3275 -0.8568
vn -0.0336 0.9991 -0.0240
vn -0.1397 0.9902 -0.0032
vn -0.0751 0.9948 0.0685
vn -0.0689 0.9955 0.0653
vn 0.0304 0.9984 -0.0474
vn 0.0771 0.9959 0.0464
usemtl LowPolyBigRock005Mat01
s off
f 9//1 1//1 34//1
f 16//2 34//2 19//2
f 31//3 11//3 4//3
f 32//4 37//4 21//4
f 21//5 37//5 14//5
f 11//6 13//6 4//6
f 7//7 10//7 6//7
f 14//8 17//8 21//8
f 20//9 23//9 24//9
f 12//10 38//10 26//10
f 3//11 11//11 31//11
f 25//12 6//12 35//12
f 22//13 10//13 18//13
f 5//14 22//14 2//14
f 1//15 5//15 2//15
f 5//16 1//16 24//16
f 25//17 7//17 6//17
f 3//18 8//18 11//18
f 2//19 22//19 28//19
f 7//20 25//20 3//20
f 12//21 32//21 38//21
f 10//22 7//22 21//22
f 37//23 32//23 12//23
f 30//24 12//24 26//24
f 9//25 13//25 20//25
f 3//26 32//26 7//26
f 11//27 8//27 23//27
f 23//28 20//28 11//28
f 18//29 21//29 17//29
f 8//30 3//30 25//30
f 1//31 2//31 28//31
f 10//32 35//32 6//32
f 24//33 1//33 20//33
f 18//34 28//34 22//34
f 9//35 34//35 16//35
f 20//36 1//36 9//36
f 18//37 17//37 28//37
f 10//38 21//38 18//38
f 20//39 13//39 11//39
f 3//40 31//40 40//40
f 38//41 29//41 4//41
f 30//42 37//42 12//42
f 30//43 14//43 37//43
f 26//44 15//44 30//44
f 29//45 31//45 4//45
f 16//46 33//46 9//46
f 15//47 26//47 27//47
f 19//48 36//48 16//48
f 28//49 19//49 34//49
f 28//50 34//50 1//50
f 17//51 19//51 28//51
f 13//52 9//52 33//52
f 27//53 4//53 39//53 33//53
f 14//54 30//54 15//54
f 19//55 17//55 15//55
f 4//56 13//56 39//56
f 21//57 7//57 32//57
f 4//58 27//58 26//58
f 33//59 36//59 27//59
f 15//60 36//60 19//60
f 27//61 36//61 15//61
f 36//62 33//62 16//62
f 15//63 17//63 14//63
f 32//64 40//64 29//64
f 38//65 32//65 29//65
f 26//66 38//66 4//66
f 39//67 13//67 33//67
f 29//68 40//68 31//68
f 40//69 32//69 3//69
usemtl LowPolyBigRock005Mat02
f 22//70 5//70 10//70
f 35//71 10//71 5//71
f 24//72 23//72 35//72
f 8//73 35//73 23//73
f 25//74 35//74 8//74
f 35//75 5//75 24//75
