# Blender v2.79 (sub 0) OBJ File: 'Low_Poly_Cuboid_Rock_011.blend'
# www.blender.org
mtllib Low_Poly_Cuboid_Rock_011.mtl
o Low_Poly_Cuboid_Rock_011_Cube.001
v -8.704902 -0.795136 9.208613
v -6.942454 2.432838 7.408772
v -7.386237 -1.742540 -8.612853
v -7.861737 0.820426 -6.409689
v 7.089480 -0.980833 10.356699
v 6.289580 1.847131 8.752918
v 7.691710 -1.719119 -7.477574
v 6.232175 2.238607 -6.403600
v 2.266007 2.865000 -5.947484
v -1.284518 -1.466625 -8.922879
v 4.356842 -2.791659 0.248847
v -5.645458 2.769025 -4.826130
v 4.542805 3.186541 6.528449
v 4.733643 3.110114 -5.066565
v -3.580476 5.283590 5.021236
v -2.777620 16.293726 3.123506
v -2.926565 15.669084 -1.283952
v 3.265505 16.086226 3.582035
v 2.916156 15.976103 -2.556613
v 1.523026 15.815854 4.210835
v 2.622197 5.759450 4.669394
v 0.908207 10.778240 4.279643
v -3.202689 10.508982 2.472703
v 1.514398 6.626033 -3.586409
v 3.467615 10.251470 -2.993765
v 3.423613 6.718192 -2.903347
v -2.827279 6.069949 -2.620195
v -2.523576 10.168454 -2.181930
v -2.425029 13.142216 -2.341669
v 2.365570 10.767262 3.333850
v -4.158518 -3.024444 0.187665
vn -0.8772 0.4802 0.0023
vn -0.0047 0.5688 -0.8224
vn 0.9396 0.3417 0.0176
vn -0.0678 0.4776 0.8760
vn 0.4121 -0.9097 0.0516
vn 0.5934 0.8047 0.0185
vn -0.4111 -0.9114 0.0180
vn -0.0941 0.6389 -0.7635
vn -0.6405 0.7665 -0.0468
vn -0.2535 -0.0897 0.9632
vn 0.0833 0.8750 -0.4769
vn 0.0993 0.9941 0.0440
vn -0.1564 0.9876 -0.0088
vn 0.9850 -0.1642 -0.0531
vn -0.9715 -0.1034 -0.2135
vn 0.5433 -0.0549 0.8378
vn 0.5292 0.2439 0.8127
vn -0.9925 0.0831 -0.0893
vn -0.9890 0.0249 -0.1461
vn 0.7981 0.6024 0.0092
vn 0.9900 0.0814 0.1151
vn -0.2487 0.4788 -0.8419
vn -0.1349 0.0625 -0.9889
vn 0.0175 0.4373 0.8992
vn 0.2286 0.5603 -0.7961
vn 0.3379 -0.0283 -0.9407
vn -0.9897 -0.1264 -0.0665
vn 0.1596 0.3129 -0.9363
vn 0.9617 0.2740 0.0034
vn -0.0156 0.8511 0.5248
vn -0.0053 -0.9902 -0.1398
vn -0.0564 0.5095 0.8586
vn 0.0366 -0.9869 -0.1572
vn 0.0281 -0.9867 -0.1599
vn -0.0676 0.6020 -0.7956
vn 0.5045 0.8634 0.0026
vn -0.7390 0.6710 -0.0599
vn -0.1087 0.6985 -0.7073
vn 0.9830 0.0821 0.1645
vn -0.4050 0.0619 0.9122
vn 0.0183 0.6292 0.7770
vn -0.0817 0.9872 -0.1371
vn -0.2172 0.3399 -0.9150
vn -0.1338 0.2297 -0.9640
vn -0.9972 0.0706 0.0237
vn 0.3517 -0.1029 0.9304
vn 0.0010 0.5861 0.8102
vn -0.6400 0.7682 0.0160
vn -0.9895 0.0011 -0.1444
vn 0.9546 0.2658 0.1347
vn 0.9850 -0.0079 0.1722
vn -0.2303 0.1203 -0.9656
vn -0.0119 -0.0532 -0.9985
vn -0.3980 -0.0649 0.9151
vn 0.2576 0.5501 -0.7943
vn -0.0279 -0.9736 0.2265
vn 0.0257 -0.9852 0.1695
vn -0.1176 0.6192 -0.7764
usemtl LowPolyCuboidRock011Mat
s off
f 4//1 1//1 2//1
f 8//2 10//2 9//2
f 8//3 5//3 7//3
f 2//4 5//4 6//4
f 11//5 7//5 5//5
f 8//6 13//6 6//6
f 3//7 31//7 1//7
f 9//8 3//8 4//8
f 2//9 12//9 4//9
f 23//10 20//10 16//10
f 9//11 14//11 8//11
f 19//12 16//12 20//12
f 19//13 20//13 18//13
f 19//14 18//14 30//14
f 23//15 17//15 29//15
f 30//16 20//16 22//16
f 21//17 30//17 22//17
f 15//18 28//18 27//18
f 23//19 29//19 28//19
f 14//20 21//20 13//20
f 26//21 30//21 21//21
f 9//22 27//22 24//22
f 28//23 19//23 25//23
f 21//24 23//24 15//24
f 9//25 26//25 14//25
f 24//26 25//26 26//26
f 4//27 3//27 1//27
f 8//28 7//28 10//28
f 8//29 6//29 5//29
f 6//30 13//30 2//30
f 10//31 7//31 11//31
f 2//32 1//32 5//32
f 10//33 31//33 3//33
f 10//34 11//34 31//34
f 9//35 10//35 3//35
f 8//36 14//36 13//36
f 2//37 27//37 12//37
f 9//38 4//38 12//38
f 25//39 19//39 30//39
f 23//40 22//40 20//40
f 13//41 15//41 2//41
f 19//42 17//42 16//42
f 29//43 17//43 19//43
f 25//44 24//44 28//44
f 23//45 16//45 17//45
f 30//46 18//46 20//46
f 15//47 13//47 21//47
f 2//48 15//48 27//48
f 15//49 23//49 28//49
f 14//50 26//50 21//50
f 26//51 25//51 30//51
f 24//52 27//52 28//52
f 28//53 29//53 19//53
f 21//54 22//54 23//54
f 9//55 24//55 26//55
f 1//56 31//56 5//56
f 31//57 11//57 5//57
f 12//58 27//58 9//58
