# Blender v2.79 (sub 0) OBJ File: 'Low_Poly_Rock_Small_002.blend'
# www.blender.org
mtllib Low_Poly_Rock_Small_002.mtl
o Low_Poly_Rock_Small_002_Icosphere.008
v -0.142350 0.031986 -0.175460
v -0.115575 0.098802 0.178595
v 0.141961 0.096300 0.131840
v 0.104906 0.034904 0.226570
v -0.012057 0.053021 -0.228342
v 0.192349 -0.004340 0.076418
v -0.223849 0.019269 -0.054766
v -0.075899 -0.113655 -0.051544
v 0.116923 -0.097665 -0.020392
v 0.136128 0.041562 -0.144891
v 0.036174 -0.038725 0.168811
v -0.179607 0.100274 -0.021542
v -0.154329 -0.006997 0.119287
v 0.175226 0.117024 -0.006460
vn 0.8696 0.1828 0.4586
vn 0.0290 -0.9508 0.3086
vn 0.4411 -0.7715 0.4585
vn -0.2551 -0.8685 0.4251
vn -0.5859 -0.6634 -0.4655
vn -0.2927 -0.4060 0.8658
vn -0.6622 -0.7333 0.1538
vn -0.3005 -0.3802 0.8747
vn 0.9126 0.3104 0.2660
vn -0.8653 0.3116 0.3926
vn -0.9374 0.1745 0.3012
vn 0.1115 0.8135 0.5708
vn 0.3323 -0.6538 -0.6798
vn 0.3543 0.7754 -0.5227
vn 0.8699 -0.3899 -0.3019
vn -0.7119 0.5617 -0.4215
vn -0.0481 0.9986 0.0227
vn 0.9667 -0.0365 -0.2532
vn -0.0351 0.9677 -0.2495
vn 0.1660 -0.7467 -0.6441
vn 0.0381 0.9869 0.1570
vn -0.3167 0.8362 -0.4477
vn -0.1771 -0.6834 -0.7082
vn 0.4295 -0.7938 0.4306
usemtl LowPolyRockSmall002Mat
s off
f 3//1 4//1 6//1
f 8//2 9//2 11//2
f 4//3 11//3 6//3
f 11//4 13//4 8//4
f 1//5 8//5 7//5
f 11//6 4//6 13//6
f 7//7 8//7 13//7
f 2//8 13//8 4//8
f 14//9 3//9 6//9
f 12//10 7//10 13//10
f 2//11 12//11 13//11
f 4//12 3//12 2//12
f 9//13 5//13 10//13
f 5//14 14//14 10//14
f 10//15 6//15 9//15
f 7//16 12//16 1//16
f 12//17 2//17 14//17
f 6//18 10//18 14//18
f 12//19 14//19 5//19
f 5//20 9//20 8//20
f 2//21 3//21 14//21
f 5//22 1//22 12//22
f 8//23 1//23 5//23
f 6//24 11//24 9//24
