# Blender v2.79 (sub 0) OBJ File: 'Low_Poly_Rock_005.blend'
# www.blender.org
mtllib Low_Poly_Rock_005.mtl
o Low_Poly_Rock_005_Icosphere.012
v -1.169528 0.297790 0.880679
v -1.280788 0.181270 -0.085741
v -1.178155 0.543551 -0.728486
v 0.251562 0.852672 -0.581152
v -0.770802 0.394443 1.203650
v -0.248141 0.090274 -1.170253
v -0.070491 0.576562 -1.179193
v 1.019833 0.335662 -1.038022
v 1.165971 0.056544 -0.748641
v 0.071745 -0.049781 1.150169
v -0.932668 -0.093944 0.843434
v 1.256134 0.558631 -0.704960
v 1.043760 0.103051 0.868232
v 0.783899 0.520145 0.939069
v 0.024245 0.703387 0.937777
v -1.145656 0.700558 0.165220
v -1.233979 -0.047551 -0.207298
v -1.131742 0.158494 -0.708955
v 1.307387 -0.035336 0.364530
v 1.325849 0.540889 0.215892
v -0.774253 0.946577 -0.042463
v 0.711465 -0.140873 -0.420489
vn -0.9735 0.2115 0.0866
vn 0.2024 -0.6518 -0.7309
vn 0.3224 -0.9392 -0.1185
vn 0.9892 -0.0655 -0.1311
vn 0.1878 0.8494 -0.4933
vn 0.2430 0.7175 -0.6528
vn 0.1151 -0.0603 -0.9915
vn 0.9824 -0.1697 -0.0776
vn 0.7399 0.3651 0.5650
vn 0.8922 0.0858 0.4434
vn 0.2772 0.0095 0.9608
vn -0.5216 -0.3877 0.7600
vn 0.2493 -0.8926 0.3757
vn -0.4665 -0.1008 -0.8787
vn -0.5935 0.7961 -0.1183
vn 0.1519 0.1708 0.9735
vn -0.2825 -0.8657 -0.4132
vn 0.8430 -0.1055 -0.5275
vn 0.1114 0.4679 0.8767
vn -0.2345 0.9062 0.3518
vn -0.9703 -0.0767 -0.2293
vn -0.3017 0.8385 0.4538
vn -0.5134 0.7550 0.4079
vn -0.3772 0.1209 -0.9182
vn -0.9665 0.2563 -0.0099
vn -0.8380 -0.5219 0.1594
vn -0.9147 -0.3190 0.2482
vn -0.2266 -0.5284 0.8182
vn -0.1654 0.9263 -0.3386
vn 0.2295 0.9527 0.1993
vn -0.9656 -0.1279 -0.2263
vn -0.1472 0.8882 -0.4352
vn -0.0699 -0.9750 -0.2111
vn 0.0999 -0.9076 -0.4077
vn 0.2806 0.9598 -0.0028
vn 0.1905 0.9738 0.1242
vn 0.0652 -0.9943 0.0842
vn -0.0511 -0.9983 -0.0294
vn 0.0233 -0.9975 0.0673
vn 0.1524 0.9811 0.1192
usemtl LowPolyRock005Mat
s off
f 2//1 1//1 16//1
f 6//2 8//2 9//2
f 22//3 9//3 19//3
f 19//4 9//4 20//4
f 4//5 12//5 7//5
f 8//6 7//6 12//6
f 7//7 8//7 6//7
f 12//8 20//8 9//8
f 13//9 20//9 14//9
f 19//10 20//10 13//10
f 14//11 10//11 13//11
f 5//12 1//12 11//12
f 19//13 13//13 10//13
f 18//14 3//14 6//14
f 16//15 21//15 3//15
f 10//16 14//16 5//16
f 18//17 6//17 17//17
f 8//18 12//18 9//18
f 15//19 5//19 14//19
f 5//20 15//20 16//20
f 17//21 2//21 18//21
f 16//22 15//22 21//22
f 1//23 5//23 16//23
f 7//24 6//24 3//24
f 2//25 16//25 3//25
f 11//26 1//26 2//26
f 17//27 11//27 2//27
f 5//28 11//28 10//28
f 4//29 7//29 3//29
f 15//30 14//30 20//30
f 3//31 18//31 2//31
f 3//32 21//32 4//32
f 17//33 6//33 22//33
f 9//34 22//34 6//34
f 20//35 12//35 4//35
f 15//36 20//36 4//36
f 10//37 22//37 19//37
f 22//38 11//38 17//38
f 11//39 22//39 10//39
f 21//40 15//40 4//40
