# Blender v2.79 (sub 0) OBJ File: 'Low_Poly_Cuboid_Rock_003.blend'
# www.blender.org
mtllib Low_Poly_Cuboid_Rock_003.mtl
o Low_Poly_Cuboid_Rock_003_Cube
v -0.130326 0.596512 -1.244820
v -0.173515 0.731767 1.068416
v 0.563295 -0.148615 1.138897
v -0.605805 0.698541 0.596637
v -0.250572 0.806310 0.390890
v -0.566470 0.590579 1.225723
v -0.568793 0.722129 -0.971192
v 0.512219 0.688422 0.651550
v -0.787274 -0.174294 0.529715
v 0.529789 0.449587 1.011834
v -0.632705 -0.165467 1.067306
v 0.645465 0.643227 -0.951508
v -0.618930 -0.144498 -1.096861
v -0.124844 0.582974 1.311452
v 0.686962 -0.248696 0.214876
v 0.542126 0.798519 -0.597382
v -0.143392 0.870430 -0.409371
v -0.724997 0.696015 -0.248556
v 0.603928 -0.138899 -1.091100
v -0.752455 -0.128614 -0.514750
v 0.733248 0.367958 0.164786
v 0.290548 -0.320609 -0.307494
vn -0.1903 -0.1853 0.9641
vn -0.0890 0.8414 0.5330
vn -0.0999 -0.9940 0.0451
vn -0.1901 0.9656 0.1776
vn 0.3420 0.1475 -0.9281
vn 0.0044 -0.9996 0.0283
vn 0.3656 0.8246 0.4317
vn 0.1202 0.9882 0.0953
vn 0.9695 0.1017 0.2231
vn -0.4913 0.1528 -0.8575
vn 0.1202 0.9882 0.0950
vn 0.0661 0.9208 -0.3845
vn -0.2860 0.9484 0.1369
vn -0.2681 0.9625 0.0412
vn 0.0055 -0.1993 -0.9799
vn 0.0666 0.9429 -0.3262
vn 0.0075 -0.9940 0.1087
vn 0.9883 -0.0629 0.1391
vn 0.9917 -0.0824 -0.0983
vn 0.8786 0.4751 0.0481
vn -0.9744 0.0865 -0.2075
vn 0.8646 0.4982 0.0646
vn -0.1221 -0.9550 -0.2703
vn 0.4419 0.2100 0.8721
vn 0.9181 0.3494 0.1869
vn 0.9969 -0.0410 -0.0668
vn -0.2945 0.9552 -0.0291
vn -0.9719 0.1916 0.1365
vn 0.1283 0.9876 0.0901
vn -0.1714 -0.9840 -0.0487
vn -0.0535 -0.2767 0.9595
vn 0.0172 -0.9922 0.1235
vn -0.9687 0.1049 -0.2251
vn -0.9986 0.0434 -0.0314
vn 0.0259 0.9615 -0.2734
vn -0.2778 0.9599 0.0363
vn 0.3562 0.7867 0.5042
vn -0.9608 0.0264 0.2758
vn -0.9761 0.1957 0.0946
vn 0.3023 -0.9481 -0.0989
usemtl LowPolyCuboidRock003Mat
s off
f 6//1 11//1 14//1
f 2//2 6//2 14//2
f 11//3 9//3 22//3
f 4//4 6//4 5//4
f 19//5 1//5 12//5
f 19//6 20//6 13//6
f 10//7 2//7 14//7
f 5//8 8//8 17//8
f 10//9 3//9 21//9
f 13//10 7//10 1//10
f 8//11 5//11 2//11
f 16//12 12//12 7//12
f 6//13 2//13 5//13
f 4//14 5//14 17//14
f 19//15 13//15 1//15
f 7//16 12//16 1//16
f 3//17 11//17 15//17
f 21//18 3//18 15//18
f 21//19 15//19 12//19
f 16//20 21//20 12//20
f 7//21 13//21 18//21
f 8//22 21//22 16//22
f 20//23 19//23 22//23
f 14//24 3//24 10//24
f 10//25 21//25 8//25
f 19//26 12//26 15//26
f 17//27 7//27 18//27
f 9//28 4//28 18//28
f 17//29 8//29 16//29
f 22//30 9//30 20//30
f 14//31 11//31 3//31
f 15//32 11//32 22//32
f 20//33 18//33 13//33
f 18//34 20//34 9//34
f 16//35 7//35 17//35
f 4//36 17//36 18//36
f 8//37 2//37 10//37
f 6//38 9//38 11//38
f 4//39 9//39 6//39
f 19//40 15//40 22//40
