# Blender v2.79 (sub 0) OBJ File: 'Low_Poly_Cuboid_Rock_006.blend'
# www.blender.org
mtllib Low_Poly_Cuboid_Rock_006.mtl
o Low_Poly_Cuboid_Rock_006_Cube
v -0.762068 1.622375 0.177854
v -0.216469 1.683443 -0.598342
v 0.974287 -0.279391 0.083601
v 0.023368 -0.984595 0.019974
v -0.706691 1.641339 0.458604
v 0.630514 1.683498 -0.318128
v 0.102796 1.758992 -0.225002
v -1.044562 -0.244919 0.101526
v 0.249929 1.654341 0.729582
v -0.408006 -0.273921 0.992641
v -0.823840 -0.268458 -0.444343
v 0.585155 -0.287168 -0.654456
v -0.542702 -0.208629 -0.961381
v 0.494636 -0.314815 0.752564
v -0.518989 1.683482 -0.395350
v 0.436541 1.643963 0.640081
v 0.525658 1.683396 -0.436893
v -0.865547 -0.587848 0.078042
v -0.698730 -0.588088 -0.387205
v 0.764694 -0.592322 0.056768
v 0.420837 -0.591642 0.622822
v -0.330495 -0.588897 -0.820709
v 0.481030 -0.591262 -0.538670
v -0.332093 -0.589663 0.817649
vn -0.0852 0.9882 -0.1271
vn 0.1220 0.9866 -0.1085
vn 0.1536 0.9855 0.0718
vn 0.0998 0.9906 0.0932
vn -0.1708 0.9848 -0.0328
vn -0.3776 -0.8857 0.2702
vn -0.8730 0.1779 -0.4541
vn -0.8127 0.0355 0.5817
vn 0.4401 -0.8569 0.2684
vn 0.2586 0.0434 0.9650
vn 0.1627 -0.8646 -0.4754
vn 0.4646 -0.8570 -0.2228
vn 0.8828 0.0592 -0.4661
vn 0.4345 0.0645 0.8984
vn -0.2687 0.2196 0.9379
vn -0.9138 0.1536 -0.3761
vn 0.9568 0.2090 0.2023
vn 0.2690 0.1366 -0.9534
vn -0.9732 0.1398 0.1825
vn -0.8652 -0.3941 -0.3100
vn -0.3344 -0.8991 -0.2824
vn 0.8099 0.0575 0.5837
vn -0.9182 0.1240 -0.3762
vn -0.0463 0.9922 0.1159
vn 0.2112 0.1136 -0.9708
vn -0.5398 0.2475 -0.8046
vn 0.7462 0.0953 -0.6589
vn 0.0525 0.9691 -0.2410
vn -0.1336 0.9898 0.0489
vn 0.1229 -0.8665 0.4838
vn 0.2425 -0.2147 -0.9461
vn 0.2132 -0.4339 0.8754
vn 0.7420 -0.4363 0.5089
vn 0.7994 -0.4325 -0.4169
vn -0.7045 -0.3826 -0.5977
vn -0.7308 -0.4568 0.5072
vn -0.4111 -0.8997 -0.1470
vn -0.8474 -0.4202 -0.3245
vn 0.2958 -0.4267 -0.8547
vn 0.2211 -0.4616 0.8591
vn 0.7272 -0.5250 0.4423
vn 0.7848 -0.4935 -0.3748
vn -0.7013 -0.5563 -0.4457
vn -0.7363 -0.4207 0.5300
usemtl LowPolyCuboidRock006Mat
s off
f 2//1 15//1 7//1
f 6//2 17//2 7//2
f 16//3 6//3 7//3
f 16//4 7//4 9//4
f 1//5 5//5 7//5
f 24//6 18//6 4//6
f 11//7 1//7 13//7
f 5//8 8//8 10//8
f 21//9 4//9 20//9
f 14//10 9//10 10//10
f 23//11 4//11 22//11
f 20//12 4//12 23//12
f 12//13 6//13 3//13
f 9//14 14//14 16//14
f 5//15 10//15 9//15
f 11//16 8//16 1//16
f 3//17 6//17 16//17
f 13//18 2//18 12//18
f 8//19 5//19 1//19
f 18//20 11//20 19//20
f 19//21 22//21 4//21
f 14//22 3//22 16//22
f 13//23 1//23 15//23
f 9//24 7//24 5//24
f 12//25 2//25 17//25
f 13//26 15//26 2//26
f 17//27 6//27 12//27
f 7//28 17//28 2//28
f 1//29 7//29 15//29
f 24//30 4//30 21//30
f 12//31 22//31 13//31
f 24//32 14//32 10//32
f 21//33 3//33 14//33
f 3//34 23//34 12//34
f 11//35 22//35 19//35
f 8//36 24//36 10//36
f 4//37 18//37 19//37
f 18//38 8//38 11//38
f 12//39 23//39 22//39
f 24//40 21//40 14//40
f 21//41 20//41 3//41
f 3//42 20//42 23//42
f 11//43 13//43 22//43
f 8//44 18//44 24//44
