# Blender v2.79 (sub 0) OBJ File: 'Low_Poly_Rock_Big_004.blend'
# www.blender.org
mtllib Low_Poly_Rock_Big_004.mtl
o Low_Poly_Rock_Big_004_Icosphere.007
v 1.976737 2.807892 0.499761
v -1.074161 1.366550 2.628212
v 0.058559 2.531688 2.253110
v -1.408476 3.973598 -1.104680
v 2.655939 -0.877305 -1.505660
v -2.822721 -1.040302 -2.240623
v 0.009952 0.208978 -3.334957
v -0.997344 2.848709 -2.689776
v 0.034026 -1.034869 -2.875559
v 3.379379 -0.827021 0.978119
v 0.995447 -1.296155 -1.165740
v -0.951342 4.121797 0.521838
v -0.154087 4.230186 -1.228524
v 1.770884 2.387842 -1.441808
v 0.926839 -1.104472 2.392926
v 1.738038 -0.431708 2.670461
v -3.171627 -0.123463 1.188310
v -3.081885 1.305405 -1.608871
v 0.339836 -0.382188 3.083391
v -2.478031 2.631697 0.806738
v -2.701709 -1.165492 0.914246
vn -0.5298 -0.2148 0.8205
vn 0.0332 0.2768 0.9603
vn 0.2118 -0.5799 0.7867
vn 0.4057 -0.7209 0.5619
vn 0.1882 -0.9495 -0.2509
vn 0.2551 -0.9652 0.0569
vn 0.4558 -0.3006 -0.8378
vn 0.9266 0.2565 -0.2751
vn 0.1062 -0.9943 -0.0108
vn -0.3280 -0.3759 0.8667
vn -0.2033 0.9786 -0.0320
vn -0.3978 0.5483 0.7356
vn -0.0563 -0.9977 -0.0374
vn 0.2806 0.2880 0.9156
vn 0.9266 0.3351 -0.1707
vn -0.9096 -0.4150 0.0184
vn 0.6866 0.4675 0.5567
vn -0.2324 -0.7641 0.6018
vn -0.0051 -0.9985 0.0537
vn -0.0282 -0.9904 -0.1355
vn -0.2032 -0.3427 -0.9172
vn 0.6083 0.1800 -0.7730
vn -0.6808 0.7216 0.1256
vn 0.4209 0.5253 -0.7395
vn -0.6635 0.5181 -0.5398
vn -0.4259 0.1911 -0.8843
vn -0.4786 0.0318 -0.8775
vn 0.3992 0.8858 0.2367
vn -0.8363 0.5411 -0.0881
vn -0.3796 0.5967 0.7070
vn -0.2167 0.7687 -0.6017
vn 0.4324 0.3664 -0.8239
vn 0.6105 0.3303 0.7199
vn 0.3550 0.7825 0.5116
vn 0.6606 0.7163 -0.2250
vn -0.9615 0.2559 0.0999
vn -0.6664 0.2643 0.6972
vn -0.9930 -0.0889 -0.0773
usemtl LowPolyBigRock004Mat
s off
f 19//1 2//1 21//1
f 3//2 2//2 19//2
f 16//3 19//3 15//3
f 16//4 15//4 10//4
f 11//5 9//5 5//5
f 5//6 15//6 11//6
f 9//7 7//7 5//7
f 14//8 10//8 5//8
f 15//9 5//9 10//9
f 17//10 21//10 2//10
f 12//11 13//11 4//11
f 12//12 20//12 3//12
f 11//13 21//13 6//13
f 3//14 19//14 16//14
f 10//15 14//15 1//15
f 21//16 17//16 6//16
f 16//17 10//17 3//17
f 15//18 19//18 21//18
f 11//19 15//19 21//19
f 6//20 9//20 11//20
f 9//21 6//21 7//21
f 14//22 5//22 7//22
f 12//23 4//23 20//23
f 13//24 14//24 8//24
f 18//25 4//25 8//25
f 7//26 6//26 18//26
f 8//27 7//27 18//27
f 12//28 1//28 13//28
f 4//29 18//29 20//29
f 3//30 20//30 2//30
f 8//31 4//31 13//31
f 8//32 14//32 7//32
f 1//33 3//33 10//33
f 1//34 12//34 3//34
f 14//35 13//35 1//35
f 17//36 20//36 18//36
f 20//37 17//37 2//37
f 6//38 17//38 18//38
