# Blender v2.79 (sub 0) OBJ File: 'Low_Poly_Rock_003.blend'
# www.blender.org
mtllib Low_Poly_Rock_003.mtl
o Low_Poly_Rock_003_Icosphere.004
v 0.182835 -0.096113 -0.856788
v -0.523137 0.068926 -0.421039
v -0.720821 0.454045 0.287242
v -0.084404 0.121626 -0.986466
v 0.646131 0.083422 -0.575851
v -0.483131 0.502004 -0.434565
v -0.419014 0.713053 0.413922
v -0.780703 0.304508 -0.196011
v 0.003309 -0.129533 -0.181982
v -0.246084 0.276978 0.842436
v 0.168652 0.417864 -0.866420
v -0.824266 0.209085 0.075217
v 0.464147 0.173601 0.724409
v 0.298087 0.160705 -0.970883
v -0.444598 0.032645 0.745473
v 0.571495 -0.070421 0.244219
v 0.296588 0.392897 0.853003
v 0.716324 0.454009 0.194449
v 0.061862 -0.152413 0.339381
v -0.079278 0.858750 0.179079
v 0.780244 0.210934 -0.022015
vn 0.0810 -0.4348 -0.8969
vn -0.7550 -0.2441 -0.6086
vn -0.4433 -0.7930 -0.4179
vn -0.6305 0.7602 -0.1571
vn -0.3823 0.6084 -0.6955
vn -0.4881 0.8549 -0.1758
vn -0.9185 0.3952 -0.0085
vn -0.6996 0.2421 -0.6723
vn 0.6734 0.6404 -0.3694
vn -0.1554 0.6604 0.7347
vn -0.1597 0.8955 -0.4155
vn 0.0716 -0.4176 0.9058
vn -0.6075 0.7804 -0.1482
vn -0.6270 0.4052 0.6654
vn 0.0293 0.8298 0.5573
vn -0.3449 -0.9386 -0.0025
vn -0.3851 -0.9225 -0.0247
vn -0.8745 -0.0484 0.4826
vn 0.9180 -0.1003 0.3837
vn -0.7758 -0.5458 -0.3166
vn -0.6813 0.2861 0.6738
vn 0.8145 0.4903 -0.3101
vn 0.7811 -0.6228 -0.0457
vn 0.1404 -0.8231 0.5502
vn -0.2991 -0.9458 -0.1264
vn 0.8795 -0.3150 0.3567
vn 0.2204 -0.9621 -0.1604
vn 0.3380 -0.9401 0.0434
vn -0.0007 0.3761 -0.9266
vn 0.4421 0.8592 -0.2575
vn 0.6801 0.5426 -0.4930
vn -0.3680 -0.9290 0.0391
vn 0.5800 -0.5337 -0.6154
vn 0.2261 -0.8471 0.4810
vn 0.0906 -0.4513 0.8877
vn 0.7935 0.2937 0.5330
vn 0.1476 -0.9872 -0.0599
vn 0.4202 0.8390 0.3457
usemtl LowPolyRock003Mat
s off
f 4//1 14//1 1//1
f 2//2 8//2 4//2
f 4//3 1//3 2//3
f 6//4 8//4 3//4
f 4//5 6//5 11//5
f 7//6 20//6 6//6
f 12//7 3//7 8//7
f 8//8 6//8 4//8
f 18//9 5//9 11//9
f 7//10 10//10 17//10
f 6//11 20//11 11//11
f 15//12 17//12 10//12
f 7//13 6//13 3//13
f 7//14 3//14 10//14
f 20//15 7//15 17//15
f 15//16 9//16 19//16
f 12//17 9//17 15//17
f 15//18 3//18 12//18
f 21//19 18//19 13//19
f 2//20 12//20 8//20
f 15//21 10//21 3//21
f 5//22 18//22 21//22
f 16//23 5//23 21//23
f 13//24 15//24 19//24
f 1//25 9//25 2//25
f 21//26 13//26 16//26
f 9//27 5//27 16//27
f 9//28 1//28 5//28
f 14//29 4//29 11//29
f 18//30 11//30 20//30
f 5//31 14//31 11//31
f 9//32 12//32 2//32
f 1//33 14//33 5//33
f 19//34 16//34 13//34
f 13//35 17//35 15//35
f 18//36 17//36 13//36
f 19//37 9//37 16//37
f 20//38 17//38 18//38
