# Blender v2.79 (sub 0) OBJ File: 'Low_Poly_Rock_Small_001.blend'
# www.blender.org
mtllib Low_Poly_Rock_Small_001.mtl
o Low_Poly_Rock_Small_001_Icosphere.003
v 0.042039 -0.080885 -0.177339
v -0.055380 0.137460 -0.132446
v 0.092353 0.128152 -0.011079
v 0.033641 -0.085567 0.157397
v 0.182501 0.020073 -0.071432
v 0.159478 -0.097264 0.006346
v -0.184664 -0.038189 0.033457
v 0.034661 0.034183 0.199439
v 0.144474 -0.006138 0.152525
v -0.183177 -0.008321 -0.111297
v -0.123595 0.117100 0.097696
v -0.099138 -0.112000 0.091108
v -0.043192 -0.008604 -0.234375
vn -0.5697 -0.0843 0.8175
vn 0.4732 0.7489 0.4640
vn 0.1110 -0.9795 0.1683
vn -0.5973 0.4249 -0.6803
vn 0.0228 -0.9944 -0.1033
vn 0.5222 -0.6986 0.4891
vn -0.6077 -0.0876 0.7894
vn 0.1772 0.8797 0.4412
vn 0.7214 -0.4754 -0.5036
vn -0.3899 -0.8081 -0.4415
vn -0.3706 -0.8800 -0.2969
vn 0.4806 0.6976 -0.5314
vn -0.9372 0.3433 0.0612
vn -0.0077 0.9963 0.0858
vn 0.5811 0.0440 -0.8126
vn -0.7533 0.6361 -0.1670
vn 0.8046 0.5584 0.2020
vn 0.4481 0.5364 -0.7151
vn -0.3764 -0.3040 0.8752
vn 0.2699 -0.3210 0.9078
vn -0.5752 -0.8000 -0.1710
vn 0.9836 -0.0892 0.1566
usemtl LowPolyRockSmall001Mat
s off
f 12//1 8//1 11//1
f 3//2 8//2 9//2
f 12//3 6//3 4//3
f 13//4 10//4 2//4
f 1//5 6//5 12//5
f 6//6 9//6 4//6
f 7//7 12//7 11//7
f 8//8 3//8 11//8
f 5//9 6//9 1//9
f 13//10 1//10 10//10
f 1//11 12//11 10//11
f 3//12 5//12 2//12
f 7//13 11//13 10//13
f 2//14 11//14 3//14
f 13//15 5//15 1//15
f 10//16 11//16 2//16
f 9//17 5//17 3//17
f 5//18 13//18 2//18
f 12//19 4//19 8//19
f 8//20 4//20 9//20
f 10//21 12//21 7//21
f 9//22 6//22 5//22
